<svg xmlns="http://www.w3.org/2000/svg" viewBox="0 0 32 32" id="shopping-trolley">
  <path fill="white" d="M27 23H8a1 1 0 0 1-1-1v-1h18.77a3.05 3.05 0 0 0 3-2.37l2.18-10a3 3 0 0 0-.59-2.5A3 3 0 0 0 28 5H7V2a1 1 0 0 0-1-1H2a1 1 0 0 0 0 2h3v19a3 3 0 0 0 2.58 3A3.94 3.94 0 0 0 7 27a4 4 0 0 0 8 0 3.91 3.91 0 0 0-.56-2h9.12a3.91 3.91 0 0 0-.56 2 4 4 0 1 0 4-4Zm1-16a1 1 0 0 1 .82.39 1 1 0 0 1 .2.82l-2.19 10a1 1 0 0 1-1 .79H7V7ZM13 27a2 2 0 1 1-2-2 2 2 0 0 1 2 2Zm14 2a2 2 0 1 1 2-2 2 2 0 0 1-2 2Z"></path>
</svg>
